<svg  width="146" height="142" viewBox="0 0 146 142" fill="none" xmlns="http://www.w3.org/2000/svg">
<rect width="142" height="142" rx="71" fill="#282828"/>
<path d="M27.6151 67.5753C27.5062 66.3774 27.0215 65.4463 26.1612 64.782C25.3118 64.1068 24.0975 63.7692 22.5185 63.7692C21.473 63.7692 20.6018 63.9053 19.9048 64.1776C19.2079 64.4498 18.6851 64.8255 18.3366 65.3047C17.9882 65.773 17.8085 66.312 17.7976 66.9219C17.7758 67.4228 17.8738 67.8639 18.0916 68.245C18.3203 68.6262 18.647 68.9638 19.0717 69.2578C19.5073 69.541 20.0301 69.7914 20.6399 70.0092C21.2498 70.227 21.9358 70.4176 22.6982 70.581L25.5732 71.2344C27.2285 71.5938 28.6877 72.0729 29.951 72.6719C31.2251 73.2708 32.2924 73.9841 33.1527 74.8118C34.0239 75.6394 34.6828 76.5923 35.1293 77.6705C35.5758 78.7486 35.8045 79.9574 35.8153 81.2969C35.8045 83.4096 35.2708 85.2228 34.2145 86.7365C33.1581 88.2502 31.639 89.41 29.657 90.2159C27.6858 91.0218 25.3063 91.4247 22.5185 91.4247C19.7197 91.4247 17.2803 91.0054 15.2003 90.1669C13.1203 89.3284 11.5031 88.0542 10.3487 86.3445C9.19437 84.6347 8.60085 82.473 8.56818 79.8594H16.3111C16.3764 80.9375 16.665 81.8359 17.1768 82.5547C17.6887 83.2734 18.3911 83.8179 19.2841 84.1882C20.188 84.5585 21.2334 84.7436 22.4205 84.7436C23.5095 84.7436 24.4351 84.5966 25.1974 84.3026C25.9706 84.0085 26.5642 83.6001 26.978 83.0774C27.3918 82.5547 27.6042 81.9557 27.6151 81.2805C27.6042 80.6489 27.4081 80.1098 27.027 79.6634C26.6458 79.206 26.0578 78.8139 25.2628 78.4872C24.4787 78.1496 23.4768 77.8393 22.2571 77.5561L18.7614 76.7393C15.8646 76.075 13.5831 75.0024 11.9169 73.5213C10.2507 72.0294 9.42306 70.0147 9.43395 67.4773C9.42306 65.4081 9.97846 63.5949 11.1001 62.0376C12.2218 60.4803 13.7737 59.2661 15.7557 58.3949C17.7377 57.5237 19.9974 57.0881 22.5348 57.0881C25.1267 57.0881 27.3755 57.5291 29.2812 58.4112C31.1979 59.2824 32.6844 60.5076 33.7408 62.0866C34.7971 63.6657 35.3362 65.4953 35.358 67.5753H27.6151ZM51.6115 91.4737C48.9652 91.4737 46.6946 90.9292 44.7997 89.8402C42.9157 88.7512 41.4673 87.2375 40.4545 85.299C39.4418 83.3497 38.9354 81.0954 38.9354 78.5362C38.9354 75.9661 39.4418 73.7119 40.4545 71.7734C41.4782 69.8241 42.9321 68.3049 44.8161 67.2159C46.7109 66.1269 48.9706 65.5824 51.5952 65.5824C53.9148 65.5824 55.9349 66.0017 57.6555 66.8402C59.3871 67.6787 60.7375 68.8658 61.7067 70.4013C62.6868 71.9259 63.2041 73.7173 63.2585 75.7756H55.7933C55.6409 74.4905 55.2053 73.4832 54.4865 72.7536C53.7786 72.0239 52.853 71.6591 51.7095 71.6591C50.7839 71.6591 49.9725 71.9205 49.2756 72.4432C48.5786 72.955 48.0341 73.7173 47.642 74.7301C47.2609 75.732 47.0703 76.9735 47.0703 78.4545C47.0703 79.9356 47.2609 81.188 47.642 82.2116C48.0341 83.2244 48.5786 83.9922 49.2756 84.5149C49.9725 85.0268 50.7839 85.2827 51.7095 85.2827C52.45 85.2827 53.1035 85.1248 53.6697 84.8089C54.2469 84.4931 54.7206 84.0303 55.0909 83.4205C55.4612 82.7997 55.6953 82.0483 55.7933 81.1662H63.2585C63.1823 83.2353 62.665 85.0431 61.7067 86.5895C60.7592 88.1359 59.4252 89.3393 57.7045 90.1996C55.9948 91.049 53.9638 91.4737 51.6115 91.4737ZM67.3464 91V65.9091H75.1056V70.483H75.367C75.8244 68.8277 76.5704 67.5971 77.6049 66.7912C78.6395 65.9744 79.8429 65.5661 81.215 65.5661C81.5853 65.5661 81.9664 65.5933 82.3585 65.6477C82.7505 65.6913 83.1154 65.7621 83.4529 65.8601V72.8026C83.0718 72.6719 82.5708 72.5684 81.9501 72.4922C81.3403 72.416 80.7958 72.3778 80.3166 72.3778C79.3691 72.3778 78.5143 72.5902 77.752 73.0149C77.0005 73.4287 76.407 74.0114 75.9714 74.7628C75.5467 75.5033 75.3343 76.3745 75.3343 77.3764V91H67.3464ZM97.1174 91.4737C94.4819 91.4737 92.2168 90.9347 90.3219 89.8565C88.4379 88.7675 86.9841 87.2538 85.9604 85.3153C84.9476 83.366 84.4412 81.1063 84.4412 78.5362C84.4412 75.9553 84.9476 73.6955 85.9604 71.7571C86.9841 69.8078 88.4379 68.294 90.3219 67.2159C92.2168 66.1269 94.4819 65.5824 97.1174 65.5824C99.7528 65.5824 102.012 66.1269 103.896 67.2159C105.791 68.294 107.245 69.8078 108.258 71.7571C109.282 73.6955 109.794 75.9553 109.794 78.5362C109.794 81.1063 109.282 83.366 108.258 85.3153C107.245 87.2538 105.791 88.7675 103.896 89.8565C102.012 90.9347 99.7528 91.4737 97.1174 91.4737ZM97.1664 85.446C98.1247 85.446 98.936 85.152 99.6003 84.5639C100.265 83.9759 100.771 83.1591 101.119 82.1136C101.479 81.0682 101.659 79.8594 101.659 78.4872C101.659 77.0933 101.479 75.8736 101.119 74.8281C100.771 73.7827 100.265 72.9659 99.6003 72.3778C98.936 71.7898 98.1247 71.4957 97.1664 71.4957C96.1754 71.4957 95.3368 71.7898 94.6507 72.3778C93.9756 72.9659 93.4583 73.7827 93.0989 74.8281C92.7504 75.8736 92.5762 77.0933 92.5762 78.4872C92.5762 79.8594 92.7504 81.0682 93.0989 82.1136C93.4583 83.1591 93.9756 83.9759 94.6507 84.5639C95.3368 85.152 96.1754 85.446 97.1664 85.446ZM121.873 57.5455V91H113.885V57.5455H121.873ZM134.946 57.5455V91H126.958V57.5455H134.946Z" stroke="#f8f8f8"/>
<path d="M68.6491 113.997L68.7788 127.859L66.1428 126.192C65.7718 125.958 65.3444 125.871 64.9688 125.873C64.5935 125.875 64.1666 125.967 63.7982 126.207C63.4236 126.451 63.0808 126.883 63.0863 127.462C63.0917 128.039 63.441 128.464 63.8173 128.702L69.54 132.321C69.911 132.555 70.3384 132.642 70.714 132.64C71.0893 132.638 71.5163 132.546 71.8847 132.306L77.539 128.62C77.9136 128.376 78.2563 127.944 78.2509 127.366C78.2455 126.789 77.8962 126.364 77.5198 126.126C77.1488 125.891 76.7214 125.804 76.3459 125.806C75.9705 125.809 75.5436 125.9 75.1752 126.14L72.5665 127.841L72.4368 113.981L72.5 102.602C72.5034 101.986 72.1179 101.566 71.7823 101.35C71.4365 101.127 71.0189 101.022 70.6096 101.022C70.2002 101.022 69.7833 101.127 69.4376 101.348C69.1033 101.561 68.7157 101.977 68.7123 102.59L68.649 113.982L68.649 113.99L68.6491 113.997Z" stroke="#f8f8f8"/>
</svg>
